<svg width="22" height="22" viewBox="0 0 22 22" fill="none" xmlns="http://www.w3.org/2000/svg">
<g clip-path="url(#clip0_4_1053)">
<path d="M8.24992 20.1667C8.75618 20.1667 9.16658 19.7563 9.16658 19.25C9.16658 18.7438 8.75618 18.3334 8.24992 18.3334C7.74366 18.3334 7.33325 18.7438 7.33325 19.25C7.33325 19.7563 7.74366 20.1667 8.24992 20.1667Z" stroke="#2C2D35" stroke-width="2" stroke-linecap="round" stroke-linejoin="round"/>
<path d="M18.3334 20.1667C18.8397 20.1667 19.2501 19.7563 19.2501 19.25C19.2501 18.7438 18.8397 18.3334 18.3334 18.3334C17.8272 18.3334 17.4167 18.7438 17.4167 19.25C17.4167 19.7563 17.8272 20.1667 18.3334 20.1667Z" stroke="#2C2D35" stroke-width="2" stroke-linecap="round" stroke-linejoin="round"/>
<path d="M0.916748 0.916626H4.58341L7.04008 13.1908C7.12391 13.6128 7.3535 13.9919 7.68866 14.2617C8.02383 14.5315 8.44322 14.6749 8.87341 14.6666H17.7834C18.2136 14.6749 18.633 14.5315 18.9682 14.2617C19.3033 13.9919 19.5329 13.6128 19.6167 13.1908L21.0834 5.49996H5.50008" stroke="#2C2D35" stroke-width="2" stroke-linecap="round" stroke-linejoin="round"/>
</g>
<defs>
<clipPath id="clip0_4_1053">
<rect width="22" height="22" fill="white"/>
</clipPath>
</defs>
</svg>
