<svg width="18" height="18" viewBox="0 0 18 18" fill="none" xmlns="http://www.w3.org/2000/svg">
<path fill-rule="evenodd" clip-rule="evenodd" d="M0.750001 0.749999C0.948913 0.551087 1.2187 0.43934 1.5 0.43934C1.7813 0.43934 2.05109 0.551087 2.25 0.749999L17.25 15.75C17.4489 15.9489 17.5606 16.2187 17.5606 16.5C17.5606 16.7813 17.4489 17.0511 17.25 17.25C17.0511 17.4489 16.7813 17.5606 16.5 17.5606C16.2187 17.5606 15.9489 17.4489 15.75 17.25L0.750001 2.25C0.551089 2.05109 0.439341 1.7813 0.439341 1.5C0.439341 1.21869 0.551089 0.948911 0.750001 0.749999Z" fill="#2C2D35"/>
<path fill-rule="evenodd" clip-rule="evenodd" d="M17.25 0.750001C17.4489 0.948913 17.5607 1.2187 17.5607 1.5C17.5607 1.7813 17.4489 2.05109 17.25 2.25L2.25001 17.25C2.0511 17.4489 1.78132 17.5606 1.50001 17.5606C1.21871 17.5606 0.948929 17.4489 0.750017 17.25C0.551105 17.0511 0.439356 16.7813 0.439356 16.5C0.439356 16.2187 0.551105 15.9489 0.750016 15.75L15.75 0.750001C15.9489 0.551089 16.2187 0.439341 16.5 0.439341C16.7813 0.439341 17.0511 0.551089 17.25 0.750001Z" fill="#2C2D35"/>
</svg>
