<svg width="60" height="59" viewBox="0 0 60 59" fill="none" xmlns="http://www.w3.org/2000/svg">
<path d="M35.2321 16.7202L43.1163 9.59064L39.9063 19.7241L39.1675 22.0563L41.5811 21.657L52.0683 19.9218L43.8893 26.7111L42.0069 28.2737L44.2532 29.2426L54.0137 33.4527L43.4625 34.7423L41.0341 35.0391L42.4001 37.0687L48.335 45.8874L38.7615 41.2679L36.5581 40.2047L36.6099 42.6506L36.835 53.2779L31.2788 44.2159L30 42.1303L28.7212 44.2159L23.165 53.2779L23.3901 42.6506L23.4419 40.2047L21.2385 41.2679L11.665 45.8873L17.5999 37.0687L18.9659 35.0391L16.5375 34.7423L5.98628 33.4527L15.7468 29.2426L17.9931 28.2737L16.1107 26.7111L7.93174 19.9218L18.4189 21.657L20.8325 22.0563L20.0937 19.7241L16.8837 9.59064L24.7679 16.7202L26.5825 18.361L27.2219 15.9996L30 5.73935L32.7781 15.9996L33.4175 18.361L35.2321 16.7202Z" stroke="#EEDB6D" stroke-width="3"/>
</svg>
